<?xml version="1.0" encoding="UTF-8" standalone="no"?>
<svg width="800" height="400" viewBox="0 0 800 400" xmlns="http://www.w3.org/2000/svg">
  <style>
    .title { font-family: Arial, sans-serif; font-size: 24px; font-weight: bold; fill: #333; }
    .subtitle { font-family: Arial, sans-serif; font-size: 18px; fill: #666; }
    .label { font-family: Arial, sans-serif; font-size: 14px; fill: #333; }
    .small-label { font-family: Arial, sans-serif; font-size: 12px; fill: #666; }
    .node { fill: #6a11cb; }
    .node-alt { fill: #2575fc; }
    .arrow { fill: none; stroke: #333; stroke-width: 2; marker-end: url(#arrowhead); }
    .dashed { stroke-dasharray: 5,5; }
    .highlight { filter: drop-shadow(0px 0px 5px rgba(106, 17, 203, 0.5)); }
  </style>
  
  <defs>
    <marker id="arrowhead" markerWidth="10" markerHeight="7" refX="9" refY="3.5" orient="auto">
      <polygon points="0 0, 10 3.5, 0 7" fill="#333" />
    </marker>
    <linearGradient id="grad1" x1="0%" y1="0%" x2="100%" y2="0%">
      <stop offset="0%" style="stop-color:#6a11cb;stop-opacity:1" />
      <stop offset="100%" style="stop-color:#2575fc;stop-opacity:1" />
    </linearGradient>
  </defs>
  
  <rect width="800" height="400" fill="#f8f9fa" />
  
  <text x="400" y="40" text-anchor="middle" class="title">AI駆動型トランザクション管理 - B</text>
  <text x="400" y="70" text-anchor="middle" class="subtitle">AIモデルのアーキテクチャ</text>
  
  <!-- AIモデルアーキテクチャ -->
  <g transform="translate(100, 120)">
    <!-- 入力層 -->
    <rect x="0" y="0" width="120" height="200" rx="10" fill="white" stroke="#ccc" stroke-width="2" />
    <text x="60" y="-10" text-anchor="middle" class="label">入力層</text>
    
    <text x="60" y="30" text-anchor="middle" class="small-label">トランザクション</text>
    <text x="60" y="50" text-anchor="middle" class="small-label">データ</text>
    
    <line x1="20" y1="60" x2="100" y2="60" stroke="#ccc" />
    
    <text x="60" y="80" text-anchor="middle" class="small-label">• 手数料</text>
    <text x="60" y="100" text-anchor="middle" class="small-label">• 送信者履歴</text>
    <text x="60" y="120" text-anchor="middle" class="small-label">• 受信者履歴</text>
    <text x="60" y="140" text-anchor="middle" class="small-label">• 時間帯</text>
    <text x="60" y="160" text-anchor="middle" class="small-label">• ネットワーク</text>
    <text x="60" y="180" text-anchor="middle" class="small-label">  負荷状況</text>
  </g>
  
  <!-- 処理層 -->
  <g transform="translate(270, 120)">
    <rect x="0" y="0" width="120" height="200" rx="10" fill="white" stroke="url(#grad1)" stroke-width="2" />
    <text x="60" y="-10" text-anchor="middle" class="label">処理層</text>
    
    <text x="60" y="30" text-anchor="middle" class="small-label">ディープ</text>
    <text x="60" y="50" text-anchor="middle" class="small-label">ニューラル</text>
    <text x="60" y="70" text-anchor="middle" class="small-label">ネットワーク</text>
    
    <line x1="20" y1="80" x2="100" y2="80" stroke="#ccc" />
    
    <text x="60" y="100" text-anchor="middle" class="small-label">• 3層構造</text>
    <text x="60" y="120" text-anchor="middle" class="small-label">• LSTM層</text>
    <text x="60" y="140" text-anchor="middle" class="small-label">• 注意機構</text>
    <text x="60" y="160" text-anchor="middle" class="small-label">• ドロップアウト</text>
    <text x="60" y="180" text-anchor="middle" class="small-label">• バッチ正規化</text>
  </g>
  
  <!-- 出力層 -->
  <g transform="translate(440, 120)">
    <rect x="0" y="0" width="120" height="200" rx="10" fill="white" stroke="#ccc" stroke-width="2" />
    <text x="60" y="-10" text-anchor="middle" class="label">出力層</text>
    
    <text x="60" y="30" text-anchor="middle" class="small-label">予測結果</text>
    
    <line x1="20" y1="40" x2="100" y2="40" stroke="#ccc" />
    
    <text x="60" y="60" text-anchor="middle" class="small-label">• 優先スコア</text>
    <text x="60" y="80" text-anchor="middle" class="small-label">  (0.0-1.0)</text>
    <text x="60" y="100" text-anchor="middle" class="small-label">• 処理順序</text>
    <text x="60" y="120" text-anchor="middle" class="small-label">• リソース</text>
    <text x="60" y="140" text-anchor="middle" class="small-label">  割り当て</text>
    <text x="60" y="160" text-anchor="middle" class="small-label">• シャード</text>
    <text x="60" y="180" text-anchor="middle" class="small-label">  割り当て</text>
  </g>
  
  <!-- 実装詳細 -->
  <g transform="translate(610, 120)">
    <rect x="0" y="0" width="150" height="200" rx="10" fill="#f1f8ff" stroke="#ccc" />
    
    <text x="75" y="30" text-anchor="middle" class="label">実装詳細</text>
    
    <line x1="20" y1="40" x2="130" y2="40" stroke="#ccc" />
    
    <text x="20" y="60" class="small-label" text-anchor="start">• ONNX形式</text>
    <text x="20" y="80" class="small-label" text-anchor="start">• PyTorch訓練</text>
    <text x="20" y="100" class="small-label" text-anchor="start">• Rust推論エンジン</text>
    <text x="20" y="120" class="small-label" text-anchor="start">• 10ms以内の</text>
    <text x="20" y="140" class="small-label" text-anchor="start">  レイテンシ</text>
    <text x="20" y="160" class="small-label" text-anchor="start">• 継続的再訓練</text>
    <text x="20" y="180" class="small-label" text-anchor="start">• A/Bテスト</text>
  </g>
  
  <!-- 矢印 -->
  <g transform="translate(220, 220)">
    <path d="M0,0 L50,0" class="arrow" />
  </g>
  
  <g transform="translate(390, 220)">
    <path d="M0,0 L50,0" class="arrow" />
  </g>
  
  <g transform="translate(560, 220)">
    <path d="M0,0 L50,0" class="arrow" stroke="#ccc" class="dashed" />
  </g>
  
  <!-- 説明 -->
  <g transform="translate(100, 350)">
    <rect x="0" y="0" width="600" height="30" rx="10" fill="#f1f8ff" stroke="#ccc" />
    <text x="300" y="20" text-anchor="middle" class="small-label">
      軽量なONNXモデルを使用し、10ms以内の高速推論でリアルタイムトランザクション処理を実現
    </text>
  </g>
</svg>