<?xml version="1.0" encoding="UTF-8" standalone="no"?>
<svg width="800" height="400" viewBox="0 0 800 400" xmlns="http://www.w3.org/2000/svg">
  <style>
    .title { font-family: Arial, sans-serif; font-size: 24px; font-weight: bold; fill: #333; }
    .subtitle { font-family: Arial, sans-serif; font-size: 18px; fill: #666; }
    .label { font-family: Arial, sans-serif; font-size: 14px; fill: #333; }
    .small-label { font-family: Arial, sans-serif; font-size: 12px; fill: #666; }
    .node { fill: #6a11cb; }
    .node-alt { fill: #2575fc; }
    .arrow { fill: none; stroke: #333; stroke-width: 2; marker-end: url(#arrowhead); }
    .dashed { stroke-dasharray: 5,5; }
    .highlight { filter: drop-shadow(0px 0px 5px rgba(106, 17, 203, 0.5)); }
  </style>
  
  <defs>
    <marker id="arrowhead" markerWidth="10" markerHeight="7" refX="9" refY="3.5" orient="auto">
      <polygon points="0 0, 10 3.5, 0 7" fill="#333" />
    </marker>
    <linearGradient id="grad1" x1="0%" y1="0%" x2="100%" y2="0%">
      <stop offset="0%" style="stop-color:#6a11cb;stop-opacity:1" />
      <stop offset="100%" style="stop-color:#2575fc;stop-opacity:1" />
    </linearGradient>
  </defs>
  
  <rect width="800" height="400" fill="#f8f9fa" />
  
  <text x="400" y="40" text-anchor="middle" class="title">AI駆動型トランザクション管理 - C</text>
  <text x="400" y="70" text-anchor="middle" class="subtitle">トラフィック予測と負荷分散</text>
  
  <!-- トラフィック予測グラフ -->
  <g transform="translate(100, 120)">
    <!-- グラフの枠 -->
    <rect x="0" y="0" width="300" height="150" fill="white" stroke="#ccc" />
    
    <!-- X軸 -->
    <line x1="0" y1="150" x2="300" y2="150" stroke="#333" />
    <text x="150" y="170" text-anchor="middle" class="small-label">時間 (時)</text>
    <text x="0" y="165" text-anchor="middle" class="small-label">0</text>
    <text x="75" y="165" text-anchor="middle" class="small-label">6</text>
    <text x="150" y="165" text-anchor="middle" class="small-label">12</text>
    <text x="225" y="165" text-anchor="middle" class="small-label">18</text>
    <text x="300" y="165" text-anchor="middle" class="small-label">24</text>
    
    <!-- Y軸 -->
    <line x1="0" y1="0" x2="0" y2="150" stroke="#333" />
    <text x="-20" y="75" text-anchor="middle" class="small-label" transform="rotate(-90, -20, 75)">トラフィック量</text>
    
    <!-- 実際のトラフィック -->
    <polyline points="0,120 25,100 50,90 75,70 100,80 125,60 150,40 175,50 200,70 225,90 250,110 275,130 300,120" 
              fill="none" stroke="#ccc" stroke-width="2" />
    
    <!-- 予測トラフィック -->
    <polyline points="150,40 175,45 200,65 225,85 250,105 275,125 300,115" 
              fill="none" stroke="url(#grad1)" stroke-width="2" stroke-dasharray="5,5" />
    
    <text x="150" y="20" text-anchor="middle" class="label">トラフィック予測</text>
    
    <!-- 現在位置 -->
    <line x1="150" y1="0" x2="150" y2="150" stroke="#333" stroke-dasharray="2,2" />
    <text x="150" y="10" text-anchor="middle" class="small-label">現在</text>
  </g>
  
  <!-- リソース割り当て -->
  <g transform="translate(450, 120)">
    <rect x="0" y="0" width="300" height="150" fill="white" stroke="#ccc" />
    <text x="150" y="20" text-anchor="middle" class="label">リソース割り当て</text>
    
    <!-- シャード数 -->
    <rect x="50" y="40" width="50" height="100" fill="#f1f8ff" stroke="#ccc" />
    <rect x="50" y="90" width="50" height="50" fill="url(#grad1)" fill-opacity="0.3" />
    <text x="75" y="150" text-anchor="middle" class="small-label">現在</text>
    <text x="75" y="165" text-anchor="middle" class="small-label">256シャード</text>
    
    <rect x="150" y="40" width="50" height="100" fill="#f1f8ff" stroke="#ccc" />
    <rect x="150" y="70" width="50" height="70" fill="url(#grad1)" fill-opacity="0.5" />
    <text x="175" y="150" text-anchor="middle" class="small-label">3時間後</text>
    <text x="175" y="165" text-anchor="middle" class="small-label">384シャード</text>
    
    <rect x="250" y="40" width="50" height="100" fill="#f1f8ff" stroke="#ccc" />
    <rect x="250" y="60" width="50" height="80" fill="url(#grad1)" fill-opacity="0.7" />
    <text x="275" y="150" text-anchor="middle" class="small-label">6時間後</text>
    <text x="275" y="165" text-anchor="middle" class="small-label">512シャード</text>
  </g>
  
  <!-- 説明 -->
  <g transform="translate(100, 320)">
    <rect x="0" y="0" width="600" height="60" rx="10" fill="#f1f8ff" stroke="#ccc" />
    
    <text x="20" y="20" class="small-label">AIによるトラフィック予測の利点:</text>
    <text x="40" y="40" class="small-label">• 事前にリソースを準備し、急激なトラフィック増加にも対応</text>
    <text x="40" y="60" class="small-label">• 予測に基づいてシャード数を自動調整し、常に最適なパフォーマンスを維持</text>
  </g>
</svg>