<?xml version="1.0" encoding="UTF-8" standalone="no"?>
<svg width="800" height="400" viewBox="0 0 800 400" xmlns="http://www.w3.org/2000/svg">
  <style>
    .title { font-family: Arial, sans-serif; font-size: 24px; font-weight: bold; fill: #333; }
    .subtitle { font-family: Arial, sans-serif; font-size: 18px; fill: #666; }
    .label { font-family: Arial, sans-serif; font-size: 14px; fill: #333; }
    .small-label { font-family: Arial, sans-serif; font-size: 12px; fill: #666; }
    .node { fill: #6a11cb; }
    .node-alt { fill: #2575fc; }
    .arrow { fill: none; stroke: #333; stroke-width: 2; marker-end: url(#arrowhead); }
    .dashed { stroke-dasharray: 5,5; }
    .highlight { filter: drop-shadow(0px 0px 5px rgba(106, 17, 203, 0.5)); }
  </style>
  
  <defs>
    <marker id="arrowhead" markerWidth="10" markerHeight="7" refX="9" refY="3.5" orient="auto">
      <polygon points="0 0, 10 3.5, 0 7" fill="#333" />
    </marker>
    <linearGradient id="grad1" x1="0%" y1="0%" x2="100%" y2="0%">
      <stop offset="0%" style="stop-color:#6a11cb;stop-opacity:1" />
      <stop offset="100%" style="stop-color:#2575fc;stop-opacity:1" />
    </linearGradient>
  </defs>
  
  <rect width="800" height="400" fill="#f8f9fa" />
  
  <text x="400" y="40" text-anchor="middle" class="title">AI駆動型トランザクション管理 - A</text>
  <text x="400" y="70" text-anchor="middle" class="subtitle">優先順位付けと予測処理</text>
  
  <!-- トランザクションプール -->
  <g transform="translate(100, 120)">
    <rect x="0" y="0" width="200" height="200" rx="10" fill="white" stroke="#ccc" stroke-width="2" />
    <text x="100" y="-10" text-anchor="middle" class="label">トランザクションプール</text>
    
    <!-- トランザクション -->
    <rect x="20" y="20" width="160" height="30" rx="5" fill="#f1f8ff" stroke="#ccc" />
    <text x="40" y="40" class="small-label">TX1: 手数料 0.001</text>
    <text x="150" y="40" text-anchor="end" class="small-label">優先度: 低</text>
    
    <rect x="20" y="60" width="160" height="30" rx="5" fill="#f1f8ff" stroke="#ccc" />
    <text x="40" y="80" class="small-label">TX2: 手数料 0.01</text>
    <text x="150" y="80" text-anchor="end" class="small-label">優先度: 中</text>
    
    <rect x="20" y="100" width="160" height="30" rx="5" fill="#e6f7ff" stroke="#2575fc" />
    <text x="40" y="120" class="small-label">TX3: 手数料 0.05</text>
    <text x="150" y="120" text-anchor="end" class="small-label">優先度: 高</text>
    
    <rect x="20" y="140" width="160" height="30" rx="5" fill="#f1f8ff" stroke="#ccc" />
    <text x="40" y="160" class="small-label">TX4: 手数料 0.002</text>
    <text x="150" y="160" text-anchor="end" class="small-label">優先度: 低</text>
    
    <rect x="20" y="180" width="160" height="30" rx="5" fill="#f1f8ff" stroke="#ccc" />
    <text x="40" y="200" class="small-label">TX5: 手数料 0.008</text>
    <text x="150" y="200" text-anchor="end" class="small-label">優先度: 中</text>
  </g>
  
  <!-- AIモデル -->
  <g transform="translate(350, 120)">
    <rect x="0" y="0" width="150" height="200" rx="10" fill="white" stroke="url(#grad1)" stroke-width="2" />
    <text x="75" y="-10" text-anchor="middle" class="label">AIモデル</text>
    
    <text x="75" y="30" text-anchor="middle" class="label">優先順位付け</text>
    <text x="75" y="50" text-anchor="middle" class="small-label">手数料</text>
    <text x="75" y="70" text-anchor="middle" class="small-label">緊急性</text>
    <text x="75" y="90" text-anchor="middle" class="small-label">ユーザー履歴</text>
    
    <line x1="20" y1="100" x2="130" y2="100" stroke="#ccc" />
    
    <text x="75" y="130" text-anchor="middle" class="label">予測処理</text>
    <text x="75" y="150" text-anchor="middle" class="small-label">トラフィック予測</text>
    <text x="75" y="170" text-anchor="middle" class="small-label">リソース最適化</text>
    <text x="75" y="190" text-anchor="middle" class="small-label">パターン検出</text>
  </g>
  
  <!-- 処理結果 -->
  <g transform="translate(550, 120)">
    <rect x="0" y="0" width="200" height="200" rx="10" fill="white" stroke="#ccc" stroke-width="2" />
    <text x="100" y="-10" text-anchor="middle" class="label">処理結果</text>
    
    <!-- 処理順序 -->
    <rect x="20" y="20" width="160" height="30" rx="5" fill="#e6f7ff" stroke="#2575fc" />
    <text x="40" y="40" class="small-label">1. TX3: 手数料 0.05</text>
    
    <rect x="20" y="60" width="160" height="30" rx="5" fill="#f1f8ff" stroke="#ccc" />
    <text x="40" y="80" class="small-label">2. TX2: 手数料 0.01</text>
    
    <rect x="20" y="100" width="160" height="30" rx="5" fill="#f1f8ff" stroke="#ccc" />
    <text x="40" y="120" class="small-label">3. TX5: 手数料 0.008</text>
    
    <rect x="20" y="140" width="160" height="30" rx="5" fill="#f1f8ff" stroke="#ccc" />
    <text x="40" y="160" class="small-label">4. TX4: 手数料 0.002</text>
    
    <rect x="20" y="180" width="160" height="30" rx="5" fill="#f1f8ff" stroke="#ccc" />
    <text x="40" y="200" class="small-label">5. TX1: 手数料 0.001</text>
  </g>
  
  <!-- 矢印 -->
  <g transform="translate(300, 220)">
    <path d="M0,0 L50,0" class="arrow" />
  </g>
  
  <g transform="translate(500, 220)">
    <path d="M0,0 L50,0" class="arrow" />
  </g>
  
  <!-- 説明 -->
  <g transform="translate(100, 350)">
    <rect x="0" y="0" width="600" height="30" rx="10" fill="#f1f8ff" stroke="#ccc" />
    <text x="300" y="20" text-anchor="middle" class="small-label">
      AIモデルが手数料、緊急性、ユーザー履歴などの要素を考慮して最適な処理順序を決定
    </text>
  </g>
</svg>