<?xml version="1.0" encoding="UTF-8" standalone="no"?>
<svg width="800" height="400" viewBox="0 0 800 400" xmlns="http://www.w3.org/2000/svg">
  <style>
    .title { font-family: Arial, sans-serif; font-size: 24px; font-weight: bold; fill: #333; }
    .subtitle { font-family: Arial, sans-serif; font-size: 18px; fill: #666; }
    .label { font-family: Arial, sans-serif; font-size: 14px; fill: #333; }
    .small-label { font-family: Arial, sans-serif; font-size: 12px; fill: #666; }
    .node { fill: #6a11cb; }
    .node-alt { fill: #2575fc; }
    .arrow { fill: none; stroke: #333; stroke-width: 2; marker-end: url(#arrowhead); }
    .dashed { stroke-dasharray: 5,5; }
    .highlight { filter: drop-shadow(0px 0px 5px rgba(106, 17, 203, 0.5)); }
  </style>
  
  <defs>
    <marker id="arrowhead" markerWidth="10" markerHeight="7" refX="9" refY="3.5" orient="auto">
      <polygon points="0 0, 10 3.5, 0 7" fill="#333" />
    </marker>
    <linearGradient id="grad1" x1="0%" y1="0%" x2="100%" y2="0%">
      <stop offset="0%" style="stop-color:#6a11cb;stop-opacity:1" />
      <stop offset="100%" style="stop-color:#2575fc;stop-opacity:1" />
    </linearGradient>
  </defs>
  
  <rect width="800" height="400" fill="#f8f9fa" />
  
  <text x="400" y="40" text-anchor="middle" class="title">AI駆動型トランザクション管理 - E</text>
  <text x="400" y="70" text-anchor="middle" class="subtitle">パフォーマンス比較</text>
  
  <!-- パフォーマンス比較グラフ -->
  <g transform="translate(100, 120)">
    <!-- グラフの枠 -->
    <rect x="0" y="0" width="600" height="200" fill="white" stroke="#ccc" />
    
    <!-- X軸 -->
    <line x1="0" y1="200" x2="600" y2="200" stroke="#333" />
    <text x="300" y="230" text-anchor="middle" class="label">トランザクション数 (1秒あたり)</text>
    <text x="0" y="220" text-anchor="middle" class="small-label">0</text>
    <text x="150" y="220" text-anchor="middle" class="small-label">10,000</text>
    <text x="300" y="220" text-anchor="middle" class="small-label">25,000</text>
    <text x="450" y="220" text-anchor="middle" class="small-label">40,000</text>
    <text x="600" y="220" text-anchor="middle" class="small-label">50,000+</text>
    
    <!-- Y軸 -->
    <line x1="0" y1="0" x2="0" y2="200" stroke="#333" />
    <text x="-30" y="100" text-anchor="middle" class="label" transform="rotate(-90, -30, 100)">処理時間 (ms)</text>
    <text x="-10" y="200" text-anchor="end" class="small-label">0</text>
    <text x="-10" y="150" text-anchor="end" class="small-label">50</text>
    <text x="-10" y="100" text-anchor="end" class="small-label">100</text>
    <text x="-10" y="50" text-anchor="end" class="small-label">150</text>
    <text x="-10" y="0" text-anchor="end" class="small-label">200</text>
    
    <!-- 従来の方式 -->
    <polyline points="0,20 150,40 300,80 450,140 600,190" 
              fill="none" stroke="#ccc" stroke-width="2" />
    
    <!-- AI駆動方式 -->
    <polyline points="0,20 150,25 300,35 450,50 600,70" 
              fill="none" stroke="url(#grad1)" stroke-width="3" />
    
    <!-- 凡例 -->
    <rect x="400" y="20" width="180" height="50" fill="white" stroke="#ccc" />
    <line x1="410" y1="35" x2="440" y2="35" stroke="#ccc" stroke-width="2" />
    <text x="445" y="40" class="small-label">従来の優先順位付け</text>
    <line x1="410" y1="55" x2="440" y2="55" stroke="url(#grad1)" stroke-width="3" />
    <text x="445" y="60" class="small-label">AI駆動型管理</text>
  </g>
  
  <!-- 説明 -->
  <g transform="translate(100, 350)">
    <rect x="0" y="0" width="600" height="30" rx="10" fill="#f1f8ff" stroke="#ccc" />
    <text x="300" y="20" text-anchor="middle" class="small-label">
      AI駆動型トランザクション管理により、高負荷時でも処理時間を大幅に短縮（最大70%改善）
    </text>
  </g>
</svg>