<?xml version="1.0" encoding="UTF-8" standalone="no"?>
<svg width="800" height="400" viewBox="0 0 800 400" xmlns="http://www.w3.org/2000/svg">
  <style>
    .title { font-family: Arial, sans-serif; font-size: 24px; font-weight: bold; fill: #333; }
    .subtitle { font-family: Arial, sans-serif; font-size: 18px; fill: #666; }
    .label { font-family: Arial, sans-serif; font-size: 14px; fill: #333; }
    .small-label { font-family: Arial, sans-serif; font-size: 12px; fill: #666; }
    .node { fill: #6a11cb; }
    .node-alt { fill: #2575fc; }
    .arrow { fill: none; stroke: #333; stroke-width: 2; marker-end: url(#arrowhead); }
    .dashed { stroke-dasharray: 5,5; }
    .highlight { filter: drop-shadow(0px 0px 5px rgba(106, 17, 203, 0.5)); }
  </style>
  
  <defs>
    <marker id="arrowhead" markerWidth="10" markerHeight="7" refX="9" refY="3.5" orient="auto">
      <polygon points="0 0, 10 3.5, 0 7" fill="#333" />
    </marker>
    <linearGradient id="grad1" x1="0%" y1="0%" x2="100%" y2="0%">
      <stop offset="0%" style="stop-color:#6a11cb;stop-opacity:1" />
      <stop offset="100%" style="stop-color:#2575fc;stop-opacity:1" />
    </linearGradient>
  </defs>
  
  <rect width="800" height="400" fill="#f8f9fa" />
  
  <text x="400" y="40" text-anchor="middle" class="title">動的シャーディング - D</text>
  <text x="400" y="70" text-anchor="middle" class="subtitle">シャードアーキテクチャとデータフロー</text>
  
  <!-- シャードアーキテクチャ -->
  <g transform="translate(100, 120)">
    <!-- メインネットワーク -->
    <rect x="200" y="0" width="200" height="60" rx="10" fill="white" stroke="#6a11cb" stroke-width="2" />
    <text x="300" y="35" text-anchor="middle" class="label">メインネットワーク</text>
    
    <!-- シャードコーディネーター -->
    <rect x="200" y="100" width="200" height="60" rx="10" fill="white" stroke="#2575fc" stroke-width="2" />
    <text x="300" y="135" text-anchor="middle" class="label">シャードコーディネーター</text>
    
    <!-- シャード -->
    <rect x="0" y="200" width="120" height="60" rx="10" fill="white" stroke="#6a11cb" stroke-width="2" />
    <text x="60" y="235" text-anchor="middle" class="label">シャード1</text>
    
    <rect x="160" y="200" width="120" height="60" rx="10" fill="white" stroke="#6a11cb" stroke-width="2" />
    <text x="220" y="235" text-anchor="middle" class="label">シャード2</text>
    
    <rect x="320" y="200" width="120" height="60" rx="10" fill="white" stroke="#6a11cb" stroke-width="2" />
    <text x="380" y="235" text-anchor="middle" class="label">シャード3</text>
    
    <rect x="480" y="200" width="120" height="60" rx="10" fill="white" stroke="#6a11cb" stroke-width="2" />
    <text x="540" y="235" text-anchor="middle" class="label">シャード4</text>
    
    <!-- 接続線 -->
    <line x1="300" y1="60" x2="300" y2="100" class="arrow" />
    <line x1="300" y1="160" x2="60" y2="200" class="arrow" />
    <line x1="300" y1="160" x2="220" y2="200" class="arrow" />
    <line x1="300" y1="160" x2="380" y2="200" class="arrow" />
    <line x1="300" y1="160" x2="540" y2="200" class="arrow" />
    
    <!-- データフロー -->
    <g transform="translate(600, 100)">
      <rect x="0" y="0" width="150" height="160" rx="10" fill="#f1f8ff" stroke="#ccc" />
      
      <text x="75" y="25" text-anchor="middle" class="label">データフロー</text>
      
      <circle cx="20" cy="50" r="5" fill="#6a11cb" />
      <text x="30" y="55" class="small-label" dx="10">トランザクション</text>
      
      <circle cx="20" cy="80" r="5" fill="#2575fc" />
      <text x="30" y="85" class="small-label" dx="10">シャード割り当て</text>
      
      <circle cx="20" cy="110" r="5" fill="#6a11cb" />
      <text x="30" y="115" class="small-label" dx="10">シャード内処理</text>
      
      <circle cx="20" cy="140" r="5" fill="#2575fc" />
      <text x="30" y="145" class="small-label" dx="10">クロスシャード通信</text>
    </g>
  </g>
</svg>