<?xml version="1.0" encoding="UTF-8" standalone="no"?>
<svg width="800" height="400" viewBox="0 0 800 400" xmlns="http://www.w3.org/2000/svg">
  <style>
    .title { font-family: Arial, sans-serif; font-size: 24px; font-weight: bold; fill: #333; }
    .subtitle { font-family: Arial, sans-serif; font-size: 18px; fill: #666; }
    .label { font-family: Arial, sans-serif; font-size: 14px; fill: #333; }
    .small-label { font-family: Arial, sans-serif; font-size: 12px; fill: #666; }
    .node { fill: #6a11cb; }
    .node-alt { fill: #2575fc; }
    .arrow { fill: none; stroke: #333; stroke-width: 2; marker-end: url(#arrowhead); }
    .dashed { stroke-dasharray: 5,5; }
    .highlight { filter: drop-shadow(0px 0px 5px rgba(106, 17, 203, 0.5)); }
  </style>
  
  <defs>
    <marker id="arrowhead" markerWidth="10" markerHeight="7" refX="9" refY="3.5" orient="auto">
      <polygon points="0 0, 10 3.5, 0 7" fill="#333" />
    </marker>
    <linearGradient id="grad1" x1="0%" y1="0%" x2="100%" y2="0%">
      <stop offset="0%" style="stop-color:#6a11cb;stop-opacity:1" />
      <stop offset="100%" style="stop-color:#2575fc;stop-opacity:1" />
    </linearGradient>
  </defs>
  
  <rect width="800" height="400" fill="#f8f9fa" />
  
  <text x="400" y="40" text-anchor="middle" class="title">動的シャーディング - C</text>
  <text x="400" y="70" text-anchor="middle" class="subtitle">シャード再分割プロセス</text>
  
  <!-- 初期状態 -->
  <g transform="translate(100, 120)">
    <text x="100" y="-20" text-anchor="middle" class="label">初期状態 (2シャード)</text>
    
    <rect x="0" y="0" width="80" height="80" rx="10" fill="white" stroke="#6a11cb" stroke-width="2" />
    <text x="40" y="30" text-anchor="middle" class="label">シャード1</text>
    <text x="40" y="50" text-anchor="middle" class="small-label">0x00-0x7F</text>
    <text x="40" y="70" text-anchor="middle" class="small-label">負荷: 90%</text>
    
    <rect x="120" y="0" width="80" height="80" rx="10" fill="white" stroke="#6a11cb" stroke-width="2" />
    <text x="160" y="30" text-anchor="middle" class="label">シャード2</text>
    <text x="160" y="50" text-anchor="middle" class="small-label">0x80-0xFF</text>
    <text x="160" y="70" text-anchor="middle" class="small-label">負荷: 85%</text>
  </g>
  
  <!-- 再分割プロセス -->
  <g transform="translate(300, 120)">
    <text x="100" y="-20" text-anchor="middle" class="label">再分割プロセス</text>
    
    <rect x="0" y="0" width="200" height="80" rx="10" fill="#f1f8ff" stroke="#ccc" stroke-width="2" />
    
    <text x="100" y="20" text-anchor="middle" class="label">シャード監視システム</text>
    <text x="100" y="40" text-anchor="middle" class="small-label">1. 負荷が閾値（80%）を超過</text>
    <text x="100" y="60" text-anchor="middle" class="small-label">2. シャード数を2倍に増加</text>
    <text x="100" y="80" text-anchor="middle" class="small-label">3. データを再分配</text>
  </g>
  
  <!-- 再分割後 -->
  <g transform="translate(520, 120)">
    <text x="140" y="-20" text-anchor="middle" class="label">再分割後 (4シャード)</text>
    
    <rect x="0" y="0" width="70" height="80" rx="10" fill="white" stroke="#6a11cb" stroke-width="2" />
    <text x="35" y="30" text-anchor="middle" class="label">シャード1</text>
    <text x="35" y="50" text-anchor="middle" class="small-label">0x00-0x3F</text>
    <text x="35" y="70" text-anchor="middle" class="small-label">負荷: 45%</text>
    
    <rect x="80" y="0" width="70" height="80" rx="10" fill="white" stroke="#6a11cb" stroke-width="2" />
    <text x="115" y="30" text-anchor="middle" class="label">シャード2</text>
    <text x="115" y="50" text-anchor="middle" class="small-label">0x40-0x7F</text>
    <text x="115" y="70" text-anchor="middle" class="small-label">負荷: 45%</text>
    
    <rect x="160" y="0" width="70" height="80" rx="10" fill="white" stroke="#6a11cb" stroke-width="2" />
    <text x="195" y="30" text-anchor="middle" class="label">シャード3</text>
    <text x="195" y="50" text-anchor="middle" class="small-label">0x80-0xBF</text>
    <text x="195" y="70" text-anchor="middle" class="small-label">負荷: 42%</text>
    
    <rect x="240" y="0" width="70" height="80" rx="10" fill="white" stroke="#6a11cb" stroke-width="2" />
    <text x="275" y="30" text-anchor="middle" class="label">シャード4</text>
    <text x="275" y="50" text-anchor="middle" class="small-label">0xC0-0xFF</text>
    <text x="275" y="70" text-anchor="middle" class="small-label">負荷: 43%</text>
  </g>
  
  <!-- 矢印 -->
  <g transform="translate(200, 160)">
    <path d="M0,0 L100,0" class="arrow" />
  </g>
  
  <g transform="translate(500, 160)">
    <path d="M0,0 L20,0" class="arrow" />
  </g>
  
  <!-- 説明 -->
  <g transform="translate(100, 250)">
    <rect x="0" y="0" width="600" height="120" rx="10" fill="#f1f8ff" stroke="#ccc" />
    
    <text x="20" y="25" class="label">シャード再分割の特徴:</text>
    <text x="40" y="50" class="small-label">• 負荷監視: 各シャードのCPU、メモリ、ディスクI/O、ネットワーク使用率を監視</text>
    <text x="40" y="75" class="small-label">• 自動スケーリング: 負荷が閾値を超えると自動的にシャード数を増加</text>
    <text x="40" y="100" class="small-label">• スマートな再分配: ハッシュベースのデータ分散で均等な負荷分散を実現</text>
    <text x="40" y="125" class="small-label">• 無停止移行: サービスを停止せずにデータを移行</text>
  </g>
</svg>