<?xml version="1.0" encoding="UTF-8" standalone="no"?>
<svg width="800" height="400" viewBox="0 0 800 400" xmlns="http://www.w3.org/2000/svg">
  <style>
    .title { font-family: Arial, sans-serif; font-size: 24px; font-weight: bold; fill: #333; }
    .subtitle { font-family: Arial, sans-serif; font-size: 18px; fill: #666; }
    .label { font-family: Arial, sans-serif; font-size: 14px; fill: #333; }
    .small-label { font-family: Arial, sans-serif; font-size: 12px; fill: #666; }
    .node { fill: #6a11cb; }
    .node-alt { fill: #2575fc; }
    .arrow { fill: none; stroke: #333; stroke-width: 2; marker-end: url(#arrowhead); }
    .dashed { stroke-dasharray: 5,5; }
    .highlight { filter: drop-shadow(0px 0px 5px rgba(106, 17, 203, 0.5)); }
  </style>
  
  <defs>
    <marker id="arrowhead" markerWidth="10" markerHeight="7" refX="9" refY="3.5" orient="auto">
      <polygon points="0 0, 10 3.5, 0 7" fill="#333" />
    </marker>
    <linearGradient id="grad1" x1="0%" y1="0%" x2="100%" y2="0%">
      <stop offset="0%" style="stop-color:#6a11cb;stop-opacity:1" />
      <stop offset="100%" style="stop-color:#2575fc;stop-opacity:1" />
    </linearGradient>
  </defs>
  
  <rect width="800" height="400" fill="#f8f9fa" />
  
  <text x="400" y="40" text-anchor="middle" class="title">動的シャーディング - B</text>
  <text x="400" y="70" text-anchor="middle" class="subtitle">シャード間通信とデータ分散</text>
  
  <!-- シャード構造 -->
  <g transform="translate(100, 120)">
    <!-- シャード1 -->
    <rect x="0" y="0" width="120" height="80" rx="10" fill="white" stroke="#6a11cb" stroke-width="2" />
    <text x="60" y="30" text-anchor="middle" class="label">シャード1</text>
    <text x="60" y="50" text-anchor="middle" class="small-label">アカウント</text>
    <text x="60" y="70" text-anchor="middle" class="small-label">0x00-0x3F</text>
    
    <!-- シャード2 -->
    <rect x="160" y="0" width="120" height="80" rx="10" fill="white" stroke="#6a11cb" stroke-width="2" />
    <text x="220" y="30" text-anchor="middle" class="label">シャード2</text>
    <text x="220" y="50" text-anchor="middle" class="small-label">アカウント</text>
    <text x="220" y="70" text-anchor="middle" class="small-label">0x40-0x7F</text>
    
    <!-- シャード3 -->
    <rect x="320" y="0" width="120" height="80" rx="10" fill="white" stroke="#6a11cb" stroke-width="2" />
    <text x="380" y="30" text-anchor="middle" class="label">シャード3</text>
    <text x="380" y="50" text-anchor="middle" class="small-label">アカウント</text>
    <text x="380" y="70" text-anchor="middle" class="small-label">0x80-0xBF</text>
    
    <!-- シャード4 -->
    <rect x="480" y="0" width="120" height="80" rx="10" fill="white" stroke="#6a11cb" stroke-width="2" />
    <text x="540" y="30" text-anchor="middle" class="label">シャード4</text>
    <text x="540" y="50" text-anchor="middle" class="small-label">アカウント</text>
    <text x="540" y="70" text-anchor="middle" class="small-label">0xC0-0xFF</text>
    
    <!-- Redis (クロスシャード通信) -->
    <rect x="240" y="140" width="120" height="60" rx="10" fill="#f1f8ff" stroke="#2575fc" stroke-width="2" />
    <text x="300" y="170" text-anchor="middle" class="label">Redis</text>
    <text x="300" y="190" text-anchor="middle" class="small-label">クロスシャード通信</text>
    
    <!-- 接続線 -->
    <line x1="60" y1="80" x2="240" y2="140" class="arrow dashed" />
    <line x1="220" y1="80" x2="260" y2="140" class="arrow dashed" />
    <line x1="380" y1="80" x2="340" y2="140" class="arrow dashed" />
    <line x1="540" y1="80" x2="360" y2="140" class="arrow dashed" />
    
    <!-- クロスシャードトランザクション -->
    <g transform="translate(100, 220)">
      <rect x="0" y="0" width="400" height="60" rx="10" fill="#f1f8ff" stroke="#ccc" />
      
      <text x="20" y="25" class="label">クロスシャードトランザクション例:</text>
      <text x="40" y="50" class="small-label">アカウント0x12（シャード1）→ アカウント0x98（シャード3）への送金</text>
      
      <path d="M50,25 L350,25" stroke="#6a11cb" stroke-width="2" stroke-dasharray="5,5" />
      <circle cx="50" cy="25" r="5" fill="#6a11cb" />
      <circle cx="350" cy="25" r="5" fill="#6a11cb" />
    </g>
  </g>
</svg>