<?xml version="1.0" encoding="UTF-8" standalone="no"?>
<svg width="800" height="400" viewBox="0 0 800 400" xmlns="http://www.w3.org/2000/svg">
  <style>
    .title { font-family: Arial, sans-serif; font-size: 24px; font-weight: bold; fill: #333; }
    .subtitle { font-family: Arial, sans-serif; font-size: 18px; fill: #666; }
    .label { font-family: Arial, sans-serif; font-size: 14px; fill: #333; }
    .small-label { font-family: Arial, sans-serif; font-size: 12px; fill: #666; }
    .node { fill: #6a11cb; }
    .node-alt { fill: #2575fc; }
    .arrow { fill: none; stroke: #333; stroke-width: 2; marker-end: url(#arrowhead); }
    .dashed { stroke-dasharray: 5,5; }
    .highlight { filter: drop-shadow(0px 0px 5px rgba(106, 17, 203, 0.5)); }
  </style>
  
  <defs>
    <marker id="arrowhead" markerWidth="10" markerHeight="7" refX="9" refY="3.5" orient="auto">
      <polygon points="0 0, 10 3.5, 0 7" fill="#333" />
    </marker>
    <linearGradient id="grad1" x1="0%" y1="0%" x2="100%" y2="0%">
      <stop offset="0%" style="stop-color:#6a11cb;stop-opacity:1" />
      <stop offset="100%" style="stop-color:#2575fc;stop-opacity:1" />
    </linearGradient>
  </defs>
  
  <rect width="800" height="400" fill="#f8f9fa" />
  
  <text x="400" y="40" text-anchor="middle" class="title">Proof of Flow (PoF) コンセンサスメカニズム - A</text>
  <text x="400" y="70" text-anchor="middle" class="subtitle">DAG + PoH + PoS の組み合わせによる高速処理</text>
  
  <!-- DAG (Directed Acyclic Graph) -->
  <g transform="translate(100, 150)">
    <circle cx="0" cy="0" r="20" class="node" />
    <circle cx="100" cy="-50" r="20" class="node" />
    <circle cx="100" cy="50" r="20" class="node" />
    <circle cx="200" cy="-70" r="20" class="node" />
    <circle cx="200" cy="0" r="20" class="node" />
    <circle cx="200" cy="70" r="20" class="node" />
    <circle cx="300" cy="-50" r="20" class="node" />
    <circle cx="300" cy="50" r="20" class="node" />
    <circle cx="400" cy="0" r="20" class="node" />
    
    <line x1="20" y1="0" x2="80" y2="-40" class="arrow" />
    <line x1="20" y1="0" x2="80" y2="40" class="arrow" />
    <line x1="120" y1="-50" x2="180" y2="-60" class="arrow" />
    <line x1="120" y1="-50" x2="180" y2="0" class="arrow" />
    <line x1="120" y1="50" x2="180" y2="0" class="arrow" />
    <line x1="120" y1="50" x2="180" y2="60" class="arrow" />
    <line x1="220" y1="-70" x2="280" y2="-50" class="arrow" />
    <line x1="220" y1="0" x2="280" y2="-40" class="arrow" />
    <line x1="220" y1="0" x2="280" y2="40" class="arrow" />
    <line x1="220" y1="70" x2="280" y2="50" class="arrow" />
    <line x1="320" y1="-50" x2="380" y2="-10" class="arrow" />
    <line x1="320" y1="50" x2="380" y2="10" class="arrow" />
    
    <text x="0" y="-30" text-anchor="middle" class="label">Genesis</text>
    <text x="200" y="-100" text-anchor="middle" class="label">DAG構造</text>
    <text x="400" y="-30" text-anchor="middle" class="label">最新TX</text>
  </g>
  
  <!-- PoH (Proof of History) -->
  <g transform="translate(100, 300)">
    <rect x="0" y="0" width="600" height="40" fill="#f1f8ff" stroke="#ccc" />
    <line x1="0" y1="20" x2="600" y2="20" stroke="#333" stroke-width="2" />
    
    <circle cx="50" cy="20" r="5" fill="#6a11cb" />
    <circle cx="150" cy="20" r="5" fill="#6a11cb" />
    <circle cx="200" cy="20" r="5" fill="#6a11cb" />
    <circle cx="300" cy="20" r="5" fill="#6a11cb" />
    <circle cx="350" cy="20" r="5" fill="#6a11cb" />
    <circle cx="450" cy="20" r="5" fill="#6a11cb" />
    <circle cx="550" cy="20" r="5" fill="#6a11cb" />
    
    <text x="50" y="40" text-anchor="middle" class="small-label">t1</text>
    <text x="150" y="40" text-anchor="middle" class="small-label">t2</text>
    <text x="200" y="40" text-anchor="middle" class="small-label">t3</text>
    <text x="300" y="40" text-anchor="middle" class="small-label">t4</text>
    <text x="350" y="40" text-anchor="middle" class="small-label">t5</text>
    <text x="450" y="40" text-anchor="middle" class="small-label">t6</text>
    <text x="550" y="40" text-anchor="middle" class="small-label">t7</text>
    
    <text x="300" y="-10" text-anchor="middle" class="label">PoH タイムライン</text>
  </g>
  
  <!-- PoS (Proof of Stake) -->
  <g transform="translate(600, 150)">
    <circle cx="50" cy="-50" r="25" fill="url(#grad1)" class="highlight" />
    <circle cx="50" cy="50" r="25" fill="url(#grad1)" />
    <circle cx="50" cy="150" r="25" fill="url(#grad1)" />
    
    <text x="50" cy="-50" dy="-35" text-anchor="middle" class="label">バリデータ1</text>
    <text x="50" cy="50" dy="-35" text-anchor="middle" class="label">バリデータ2</text>
    <text x="50" cy="150" dy="-35" text-anchor="middle" class="label">バリデータ3</text>
    
    <text x="50" y="-100" text-anchor="middle" class="label">PoS検証</text>
    
    <line x1="25" y1="-50" x2="-50" y2="-50" class="arrow dashed" />
    <line x1="25" y1="50" x2="-50" y2="0" class="arrow dashed" />
    <line x1="25" y1="150" x2="-50" y2="50" class="arrow dashed" />
  </g>
</svg>