<?xml version="1.0" encoding="UTF-8" standalone="no"?>
<svg width="800" height="400" viewBox="0 0 800 400" xmlns="http://www.w3.org/2000/svg">
  <style>
    .title { font-family: Arial, sans-serif; font-size: 24px; font-weight: bold; fill: #333; }
    .subtitle { font-family: Arial, sans-serif; font-size: 18px; fill: #666; }
    .label { font-family: Arial, sans-serif; font-size: 14px; fill: #333; }
    .small-label { font-family: Arial, sans-serif; font-size: 12px; fill: #666; }
    .node { fill: #6a11cb; }
    .node-alt { fill: #2575fc; }
    .arrow { fill: none; stroke: #333; stroke-width: 2; marker-end: url(#arrowhead); }
    .dashed { stroke-dasharray: 5,5; }
    .highlight { filter: drop-shadow(0px 0px 5px rgba(106, 17, 203, 0.5)); }
  </style>
  
  <defs>
    <marker id="arrowhead" markerWidth="10" markerHeight="7" refX="9" refY="3.5" orient="auto">
      <polygon points="0 0, 10 3.5, 0 7" fill="#333" />
    </marker>
    <linearGradient id="grad1" x1="0%" y1="0%" x2="100%" y2="0%">
      <stop offset="0%" style="stop-color:#6a11cb;stop-opacity:1" />
      <stop offset="100%" style="stop-color:#2575fc;stop-opacity:1" />
    </linearGradient>
  </defs>
  
  <rect width="800" height="400" fill="#f8f9fa" />
  
  <text x="400" y="40" text-anchor="middle" class="title">システムアーキテクチャ - D</text>
  <text x="400" y="70" text-anchor="middle" class="subtitle">デプロイメントアーキテクチャ</text>
  
  <!-- デプロイメント図 -->
  <g transform="translate(100, 120)">
    <!-- クラウド環境 -->
    <rect x="0" y="0" width="600" height="200" rx="10" fill="white" stroke="#ccc" stroke-width="2" />
    <text x="300" y="-10" text-anchor="middle" class="label">クラウド/オンプレミス環境</text>
    
    <!-- ロードバランサー -->
    <rect x="250" y="20" width="100" height="40" rx="5" fill="#f1f8ff" stroke="#ccc" />
    <text x="300" y="45" text-anchor="middle" class="small-label">ロードバランサー</text>
    
    <!-- API層 -->
    <rect x="50" y="80" width="500" height="40" rx="5" fill="#f1f8ff" stroke="#ccc" />
    <text x="300" y="105" text-anchor="middle" class="small-label">APIゲートウェイクラスタ</text>
    
    <!-- ノードクラスタ -->
    <rect x="50" y="140" width="120" height="40" rx="5" fill="white" stroke="url(#grad1)" />
    <text x="110" y="165" text-anchor="middle" class="small-label">ノードクラスタ1</text>
    
    <rect x="190" y="140" width="120" height="40" rx="5" fill="white" stroke="url(#grad1)" />
    <text x="250" y="165" text-anchor="middle" class="small-label">ノードクラスタ2</text>
    
    <rect x="330" y="140" width="120" height="40" rx="5" fill="white" stroke="url(#grad1)" />
    <text x="390" y="165" text-anchor="middle" class="small-label">ノードクラスタ3</text>
    
    <rect x="470" y="140" width="80" height="40" rx="5" fill="white" stroke="#ccc" stroke-dasharray="5,5" />
    <text x="510" y="165" text-anchor="middle" class="small-label">...</text>
    
    <!-- 接続線 -->
    <line x1="300" y1="60" x2="300" y2="80" class="arrow" />
    <line x1="110" y1="120" x2="110" y2="140" class="arrow" />
    <line x1="250" y1="120" x2="250" y2="140" class="arrow" />
    <line x1="390" y1="120" x2="390" y2="140" class="arrow" />
    <line x1="510" y1="120" x2="510" y2="140" class="arrow" />
  </g>
  
  <!-- 説明 -->
  <g transform="translate(100, 340)">
    <rect x="0" y="0" width="600" height="40" rx="10" fill="#f1f8ff" stroke="#ccc" />
    <text x="20" y="15" class="small-label">
      スケーラブルなデプロイメントアーキテクチャにより、需要に応じて水平スケーリングが可能です。
    </text>
    <text x="20" y="35" class="small-label">
      Kubernetes、Docker Swarm、またはカスタムオーケストレーションでデプロイ可能です。
    </text>
  </g>
</svg>