<?xml version="1.0" encoding="UTF-8" standalone="no"?>
<svg width="800" height="400" viewBox="0 0 800 400" xmlns="http://www.w3.org/2000/svg">
  <style>
    .title { font-family: Arial, sans-serif; font-size: 24px; font-weight: bold; fill: #333; }
    .subtitle { font-family: Arial, sans-serif; font-size: 18px; fill: #666; }
    .label { font-family: Arial, sans-serif; font-size: 14px; fill: #333; }
    .small-label { font-family: Arial, sans-serif; font-size: 12px; fill: #666; }
    .node { fill: #6a11cb; }
    .node-alt { fill: #2575fc; }
    .arrow { fill: none; stroke: #333; stroke-width: 2; marker-end: url(#arrowhead); }
    .dashed { stroke-dasharray: 5,5; }
    .highlight { filter: drop-shadow(0px 0px 5px rgba(106, 17, 203, 0.5)); }
  </style>
  
  <defs>
    <marker id="arrowhead" markerWidth="10" markerHeight="7" refX="9" refY="3.5" orient="auto">
      <polygon points="0 0, 10 3.5, 0 7" fill="#333" />
    </marker>
    <linearGradient id="grad1" x1="0%" y1="0%" x2="100%" y2="0%">
      <stop offset="0%" style="stop-color:#6a11cb;stop-opacity:1" />
      <stop offset="100%" style="stop-color:#2575fc;stop-opacity:1" />
    </linearGradient>
  </defs>
  
  <rect width="800" height="400" fill="#f8f9fa" />
  
  <text x="400" y="40" text-anchor="middle" class="title">システムアーキテクチャ - B</text>
  <text x="400" y="70" text-anchor="middle" class="subtitle">コンポーネント間の相互作用</text>
  
  <!-- コンポーネント図 -->
  <g transform="translate(100, 120)">
    <!-- コンセンサスエンジン -->
    <rect x="0" y="0" width="120" height="80" rx="10" fill="white" stroke="#6a11cb" stroke-width="2" />
    <text x="60" y="30" text-anchor="middle" class="label">コンセンサス</text>
    <text x="60" y="50" text-anchor="middle" class="small-label">エンジン</text>
    <text x="60" y="70" text-anchor="middle" class="small-label">(PoF)</text>
    
    <!-- シャーディングマネージャ -->
    <rect x="200" y="0" width="120" height="80" rx="10" fill="white" stroke="#6a11cb" stroke-width="2" />
    <text x="260" y="30" text-anchor="middle" class="label">シャーディング</text>
    <text x="260" y="50" text-anchor="middle" class="small-label">マネージャ</text>
    
    <!-- AIエンジン -->
    <rect x="400" y="0" width="120" height="80" rx="10" fill="white" stroke="#6a11cb" stroke-width="2" />
    <text x="460" y="30" text-anchor="middle" class="label">AIエンジン</text>
    <text x="460" y="50" text-anchor="middle" class="small-label">(ONNX)</text>
    
    <!-- トランザクションプール -->
    <rect x="0" y="160" width="120" height="80" rx="10" fill="white" stroke="#2575fc" stroke-width="2" />
    <text x="60" y="190" text-anchor="middle" class="label">トランザクション</text>
    <text x="60" y="210" text-anchor="middle" class="small-label">プール</text>
    
    <!-- ストレージエンジン -->
    <rect x="200" y="160" width="120" height="80" rx="10" fill="white" stroke="#2575fc" stroke-width="2" />
    <text x="260" y="190" text-anchor="middle" class="label">ストレージ</text>
    <text x="260" y="210" text-anchor="middle" class="small-label">エンジン</text>
    
    <!-- APIゲートウェイ -->
    <rect x="400" y="160" width="120" height="80" rx="10" fill="white" stroke="#2575fc" stroke-width="2" />
    <text x="460" y="190" text-anchor="middle" class="label">API</text>
    <text x="460" y="210" text-anchor="middle" class="small-label">ゲートウェイ</text>
    
    <!-- 接続線 -->
    <line x1="120" y1="40" x2="200" y2="40" class="arrow" />
    <line x1="320" y1="40" x2="400" y2="40" class="arrow" />
    
    <line x1="60" y1="80" x2="60" y2="160" class="arrow" />
    <line x1="260" y1="80" x2="260" y2="160" class="arrow" />
    <line x1="460" y1="80" x2="460" y2="160" class="arrow" />
    
    <line x1="120" y1="200" x2="200" y2="200" class="arrow" />
    <line x1="320" y1="200" x2="400" y2="200" class="arrow" />
    
    <line x1="120" y1="160" x2="200" y2="80" class="arrow dashed" />
    <line x1="320" y1="160" x2="400" y2="80" class="arrow dashed" />
    <line x1="120" y1="80" x2="200" y2="160" class="arrow dashed" />
    <line x1="320" y1="80" x2="400" y2="160" class="arrow dashed" />
  </g>
  
  <!-- 説明 -->
  <g transform="translate(600, 120)">
    <rect x="0" y="0" width="150" height="200" rx="10" fill="#f1f8ff" stroke="#ccc" />
    
    <text x="75" y="30" text-anchor="middle" class="label">相互作用</text>
    
    <line x1="20" y1="50" x2="130" y2="50" stroke="#ccc" />
    
    <line x1="20" y1="70" x2="40" y2="70" stroke="#333" stroke-width="2" />
    <text x="45" y="75" class="small-label" dx="10">直接通信</text>
    
    <line x1="20" y1="100" x2="40" y2="100" stroke="#333" stroke-width="2" stroke-dasharray="5,5" />
    <text x="45" y="105" class="small-label" dx="10">イベント通知</text>
    
    <text x="20" y="135" class="small-label">主要コンポーネント:</text>
    <text x="30" y="155" class="small-label">• コンセンサス</text>
    <text x="30" y="175" class="small-label">• シャーディング</text>
    <text x="30" y="195" class="small-label">• AIエンジン</text>
  </g>
</svg>