<?xml version="1.0" encoding="UTF-8" standalone="no"?>
<svg width="800" height="400" viewBox="0 0 800 400" xmlns="http://www.w3.org/2000/svg">
  <style>
    .title { font-family: Arial, sans-serif; font-size: 24px; font-weight: bold; fill: #333; }
    .subtitle { font-family: Arial, sans-serif; font-size: 18px; fill: #666; }
    .label { font-family: Arial, sans-serif; font-size: 14px; fill: #333; }
    .small-label { font-family: Arial, sans-serif; font-size: 12px; fill: #666; }
    .node { fill: #6a11cb; }
    .node-alt { fill: #2575fc; }
    .arrow { fill: none; stroke: #333; stroke-width: 2; marker-end: url(#arrowhead); }
    .dashed { stroke-dasharray: 5,5; }
    .highlight { filter: drop-shadow(0px 0px 5px rgba(106, 17, 203, 0.5)); }
  </style>
  
  <defs>
    <marker id="arrowhead" markerWidth="10" markerHeight="7" refX="9" refY="3.5" orient="auto">
      <polygon points="0 0, 10 3.5, 0 7" fill="#333" />
    </marker>
    <linearGradient id="grad1" x1="0%" y1="0%" x2="100%" y2="0%">
      <stop offset="0%" style="stop-color:#6a11cb;stop-opacity:1" />
      <stop offset="100%" style="stop-color:#2575fc;stop-opacity:1" />
    </linearGradient>
  </defs>
  
  <rect width="800" height="400" fill="#f8f9fa" />
  
  <text x="400" y="40" text-anchor="middle" class="title">システムアーキテクチャ - C</text>
  <text x="400" y="70" text-anchor="middle" class="subtitle">ノードアーキテクチャ</text>
  
  <!-- ノード図 -->
  <g transform="translate(100, 120)">
    <rect x="0" y="0" width="600" height="200" rx="10" fill="white" stroke="#ccc" stroke-width="2" />
    <text x="300" y="-10" text-anchor="middle" class="label">HyperFluxノード</text>
    
    <!-- コアモジュール -->
    <rect x="20" y="20" width="560" height="80" rx="5" fill="#f1f8ff" stroke="#ccc" />
    <text x="300" y="40" text-anchor="middle" class="label">コアモジュール</text>
    
    <rect x="40" y="50" width="100" height="40" rx="5" fill="white" stroke="#6a11cb" />
    <text x="90" y="75" text-anchor="middle" class="small-label">コンセンサス</text>
    
    <rect x="160" y="50" width="100" height="40" rx="5" fill="white" stroke="#6a11cb" />
    <text x="210" y="75" text-anchor="middle" class="small-label">シャーディング</text>
    
    <rect x="280" y="50" width="100" height="40" rx="5" fill="white" stroke="#6a11cb" />
    <text x="330" y="75" text-anchor="middle" class="small-label">AIエンジン</text>
    
    <rect x="400" y="50" width="100" height="40" rx="5" fill="white" stroke="#6a11cb" />
    <text x="450" y="75" text-anchor="middle" class="small-label">ストレージ</text>
    
    <!-- サポートモジュール -->
    <rect x="20" y="110" width="560" height="80" rx="5" fill="#f1f8ff" stroke="#ccc" />
    <text x="300" y="130" text-anchor="middle" class="label">サポートモジュール</text>
    
    <rect x="40" y="140" width="100" height="40" rx="5" fill="white" stroke="#2575fc" />
    <text x="90" y="165" text-anchor="middle" class="small-label">ネットワーク</text>
    
    <rect x="160" y="140" width="100" height="40" rx="5" fill="white" stroke="#2575fc" />
    <text x="210" y="165" text-anchor="middle" class="small-label">セキュリティ</text>
    
    <rect x="280" y="140" width="100" height="40" rx="5" fill="white" stroke="#2575fc" />
    <text x="330" y="165" text-anchor="middle" class="small-label">API</text>
    
    <rect x="400" y="140" width="100" height="40" rx="5" fill="white" stroke="#2575fc" />
    <text x="450" y="165" text-anchor="middle" class="small-label">モニタリング</text>
  </g>
  
  <!-- 説明 -->
  <g transform="translate(100, 340)">
    <rect x="0" y="0" width="600" height="40" rx="10" fill="#f1f8ff" stroke="#ccc" />
    <text x="20" y="25" class="small-label">
      各ノードは独立して動作し、コアモジュールとサポートモジュールで構成されています。
      Rustで実装され、高いパフォーマンスと安全性を確保しています。
    </text>
  </g>
</svg>