<?xml version="1.0" encoding="UTF-8" standalone="no"?>
<svg width="800" height="400" viewBox="0 0 800 400" xmlns="http://www.w3.org/2000/svg">
  <style>
    .title { font-family: Arial, sans-serif; font-size: 24px; font-weight: bold; fill: #333; }
    .subtitle { font-family: Arial, sans-serif; font-size: 18px; fill: #666; }
    .label { font-family: Arial, sans-serif; font-size: 14px; fill: #333; }
    .small-label { font-family: Arial, sans-serif; font-size: 12px; fill: #666; }
    .node { fill: #6a11cb; }
    .node-alt { fill: #2575fc; }
    .arrow { fill: none; stroke: #333; stroke-width: 2; marker-end: url(#arrowhead); }
    .dashed { stroke-dasharray: 5,5; }
    .highlight { filter: drop-shadow(0px 0px 5px rgba(106, 17, 203, 0.5)); }
  </style>
  
  <defs>
    <marker id="arrowhead" markerWidth="10" markerHeight="7" refX="9" refY="3.5" orient="auto">
      <polygon points="0 0, 10 3.5, 0 7" fill="#333" />
    </marker>
    <linearGradient id="grad1" x1="0%" y1="0%" x2="100%" y2="0%">
      <stop offset="0%" style="stop-color:#6a11cb;stop-opacity:1" />
      <stop offset="100%" style="stop-color:#2575fc;stop-opacity:1" />
    </linearGradient>
  </defs>
  
  <rect width="800" height="400" fill="#f8f9fa" />
  
  <text x="400" y="40" text-anchor="middle" class="title">ユーザーフロー - E</text>
  <text x="400" y="70" text-anchor="middle" class="subtitle">エコシステム参加フロー</text>
  
  <!-- ユーザーフロー図 -->
  <g transform="translate(100, 120)">
    <!-- 中央のHyperFlux -->
    <circle cx="300" cy="100" r="80" fill="white" stroke="url(#grad1)" stroke-width="3" />
    <text x="300" y="100" text-anchor="middle" class="label">HyperFlux</text>
    <text x="300" y="120" text-anchor="middle" class="small-label">エコシステム</text>
    
    <!-- ユーザー -->
    <g transform="translate(100, 0)">
      <rect x="0" y="0" width="100" height="50" rx="10" fill="white" stroke="#6a11cb" stroke-width="2" />
      <text x="50" y="30" text-anchor="middle" class="label">ユーザー</text>
      
      <line x1="100" y1="25" x2="120" y2="75" class="arrow" />
      <text x="110" y="40" text-anchor="middle" class="small-label" transform="rotate(-30, 110, 40)">利用</text>
    </g>
    
    <!-- 開発者 -->
    <g transform="translate(0, 100)">
      <rect x="0" y="0" width="100" height="50" rx="10" fill="white" stroke="#6a11cb" stroke-width="2" />
      <text x="50" y="30" text-anchor="middle" class="label">開発者</text>
      
      <line x1="100" y1="25" x2="200" y2="100" class="arrow" />
      <text x="150" y="50" text-anchor="middle" class="small-label">構築</text>
    </g>
    
    <!-- バリデータ -->
    <g transform="translate(100, 200)">
      <rect x="0" y="0" width="100" height="50" rx="10" fill="white" stroke="#6a11cb" stroke-width="2" />
      <text x="50" y="30" text-anchor="middle" class="label">バリデータ</text>
      
      <line x1="100" y1="25" x2="120" y2="-25" class="arrow" />
      <text x="110" y="0" text-anchor="middle" class="small-label" transform="rotate(30, 110, 0)">検証</text>
    </g>
    
    <!-- 企業 -->
    <g transform="translate(400, 0)">
      <rect x="0" y="0" width="100" height="50" rx="10" fill="white" stroke="#6a11cb" stroke-width="2" />
      <text x="50" y="30" text-anchor="middle" class="label">企業</text>
      
      <line x1="0" y1="25" x2="-20" y2="75" class="arrow" />
      <text x="-10" y="40" text-anchor="middle" class="small-label" transform="rotate(30, -10, 40)">統合</text>
    </g>
    
    <!-- ガバナンス参加者 -->
    <g transform="translate(400, 200)">
      <rect x="0" y="0" width="100" height="50" rx="10" fill="white" stroke="#6a11cb" stroke-width="2" />
      <text x="50" y="20" text-anchor="middle" class="label">ガバナンス</text>
      <text x="50" y="40" text-anchor="middle" class="label">参加者</text>
      
      <line x1="0" y1="25" x2="-20" y2="-25" class="arrow" />
      <text x="-10" y="0" text-anchor="middle" class="small-label" transform="rotate(-30, -10, 0)">決定</text>
    </g>
  </g>
  
  <!-- 説明 -->
  <g transform="translate(100, 350)">
    <rect x="0" y="0" width="600" height="30" rx="10" fill="#f1f8ff" stroke="#ccc" />
    <text x="300" y="20" text-anchor="middle" class="small-label">
      HyperFluxエコシステムは様々な参加者によって構成され、それぞれが独自の役割を担っています
    </text>
  </g>
</svg>