<?xml version="1.0" encoding="UTF-8" standalone="no"?>
<svg width="800" height="500" viewBox="0 0 800 500" xmlns="http://www.w3.org/2000/svg">
  <defs>
    <linearGradient id="header-gradient" x1="0%" y1="0%" x2="100%" y2="0%">
      <stop offset="0%" stop-color="#6a11cb" stop-opacity="0.9"/>
      <stop offset="100%" stop-color="#2575fc" stop-opacity="0.9"/>
    </linearGradient>
    <filter id="shadow" x="-20%" y="-20%" width="140%" height="140%">
      <feDropShadow dx="2" dy="2" stdDeviation="3" flood-color="#000" flood-opacity="0.3"/>
    </filter>
  </defs>
  
  <!-- 背景 -->
  <rect width="800" height="500" fill="#f8f9fa" rx="10" ry="10"/>
  
  <!-- ダッシュボードのヘッダー -->
  <rect x="50" y="50" width="700" height="60" rx="10" ry="10" fill="url(#header-gradient)" filter="url(#shadow)"/>
  <text x="100" y="90" font-family="Arial, sans-serif" font-size="24" font-weight="bold" fill="white">HyperFlux.io ダッシュボード</text>
  
  <!-- ナビゲーションメニュー -->
  <g transform="translate(500, 80)">
    <text x="0" y="0" font-family="Arial, sans-serif" font-size="14" fill="white">ホーム</text>
    <text x="70" y="0" font-family="Arial, sans-serif" font-size="14" fill="white">ウォレット</text>
    <text x="160" y="0" font-family="Arial, sans-serif" font-size="14" fill="white">DEX</text>
    <text x="210" y="0" font-family="Arial, sans-serif" font-size="14" fill="white">設定</text>
  </g>
  
  <!-- ステータスカード -->
  <g transform="translate(100, 150)">
    <!-- ノード状態 -->
    <rect x="0" y="0" width="150" height="100" rx="10" ry="10" fill="#E3F2FD" stroke="#90CAF9" stroke-width="1"/>
    <text x="75" y="30" font-family="Arial, sans-serif" font-size="14" font-weight="bold" text-anchor="middle" fill="#1565C0">ノード状態</text>
    <text x="75" y="60" font-family="Arial, sans-serif" font-size="20" font-weight="bold" text-anchor="middle" fill="#1565C0">オンライン</text>
    <circle cx="75" cy="85" r="8" fill="#4CAF50"/>
  </g>
  
  <g transform="translate(300, 150)">
    <!-- 現在のTPS -->
    <rect x="0" y="0" width="150" height="100" rx="10" ry="10" fill="#E8F5E9" stroke="#A5D6A7" stroke-width="1"/>
    <text x="75" y="30" font-family="Arial, sans-serif" font-size="14" font-weight="bold" text-anchor="middle" fill="#2E7D32">現在のTPS</text>
    <text x="75" y="60" font-family="Arial, sans-serif" font-size="20" font-weight="bold" text-anchor="middle" fill="#2E7D32">42,156</text>
    <text x="75" y="85" font-family="Arial, sans-serif" font-size="12" text-anchor="middle" fill="#2E7D32">トランザクション/秒</text>
  </g>
  
  <g transform="translate(500, 150)">
    <!-- シャード数 -->
    <rect x="0" y="0" width="150" height="100" rx="10" ry="10" fill="#FFF3E0" stroke="#FFCC80" stroke-width="1"/>
    <text x="75" y="30" font-family="Arial, sans-serif" font-size="14" font-weight="bold" text-anchor="middle" fill="#E65100">シャード数</text>
    <text x="75" y="60" font-family="Arial, sans-serif" font-size="20" font-weight="bold" text-anchor="middle" fill="#E65100">256</text>
    <text x="75" y="85" font-family="Arial, sans-serif" font-size="12" text-anchor="middle" fill="#E65100">動的に調整中</text>
  </g>
  
  <!-- グラフ -->
  <g transform="translate(100, 280)">
    <rect x="0" y="0" width="550" height="180" rx="10" ry="10" fill="white" stroke="#E0E0E0" stroke-width="1"/>
    <text x="20" y="30" font-family="Arial, sans-serif" font-size="16" font-weight="bold" fill="#333">TPSの推移</text>
    
    <!-- グラフの軸 -->
    <line x1="50" y1="150" x2="500" y2="150" stroke="#9E9E9E" stroke-width="1"/>
    <line x1="50" y1="50" x2="50" y2="150" stroke="#9E9E9E" stroke-width="1"/>
    
    <!-- グラフの目盛り -->
    <text x="40" y="150" font-family="Arial, sans-serif" font-size="10" text-anchor="end" fill="#9E9E9E">0</text>
    <text x="40" y="100" font-family="Arial, sans-serif" font-size="10" text-anchor="end" fill="#9E9E9E">25K</text>
    <text x="40" y="50" font-family="Arial, sans-serif" font-size="10" text-anchor="end" fill="#9E9E9E">50K</text>
    
    <!-- グラフの線 -->
    <polyline points="50,120 100,110 150,90 200,100 250,80 300,70 350,50 400,60 450,40 500,50" 
              fill="none" stroke="#2196F3" stroke-width="2"/>
    
    <!-- データポイント -->
    <circle cx="50" cy="120" r="3" fill="#2196F3"/>
    <circle cx="100" cy="110" r="3" fill="#2196F3"/>
    <circle cx="150" cy="90" r="3" fill="#2196F3"/>
    <circle cx="200" cy="100" r="3" fill="#2196F3"/>
    <circle cx="250" cy="80" r="3" fill="#2196F3"/>
    <circle cx="300" cy="70" r="3" fill="#2196F3"/>
    <circle cx="350" cy="50" r="3" fill="#2196F3"/>
    <circle cx="400" cy="60" r="3" fill="#2196F3"/>
    <circle cx="450" cy="40" r="3" fill="#2196F3"/>
    <circle cx="500" cy="50" r="3" fill="#2196F3"/>
  </g>
  
  <!-- フッター -->
  <text x="400" y="480" font-family="Arial, sans-serif" font-size="12" text-anchor="middle" fill="#666">© 2025 HyperFlux.io - リアルタイムモニタリングダッシュボード</text>
</svg>