<?xml version="1.0" encoding="UTF-8" standalone="no"?>
<svg width="800" height="500" viewBox="0 0 800 500" xmlns="http://www.w3.org/2000/svg">
  <defs>
    <linearGradient id="shard-gradient" x1="0%" y1="0%" x2="100%" y2="100%">
      <stop offset="0%" stop-color="#ff9800" stop-opacity="0.8"/>
      <stop offset="100%" stop-color="#f44336" stop-opacity="0.8"/>
    </linearGradient>
    <filter id="shadow" x="-20%" y="-20%" width="140%" height="140%">
      <feDropShadow dx="2" dy="2" stdDeviation="3" flood-color="#000" flood-opacity="0.3"/>
    </filter>
    <marker id="arrow" viewBox="0 0 10 10" refX="5" refY="5"
      markerWidth="6" markerHeight="6" orient="auto-start-reverse">
      <path d="M 0 0 L 10 5 L 0 10 z" fill="#333"/>
    </marker>
  </defs>
  
  <!-- 背景 -->
  <rect width="800" height="500" fill="#f8f9fa" rx="10" ry="10"/>
  
  <!-- タイトル -->
  <text x="400" y="50" font-family="Arial, sans-serif" font-size="24" font-weight="bold" text-anchor="middle" fill="#333">動的シャーディング</text>
  
  <!-- メインコンテナ -->
  <rect x="100" y="100" width="600" height="300" rx="15" ry="15" fill="#f5f5f5" stroke="#ddd" stroke-width="2"/>
  
  <!-- シャード -->
  <g>
    <!-- シャード1 -->
    <rect x="150" y="150" width="100" height="200" rx="10" ry="10" fill="url(#shard-gradient)" filter="url(#shadow)" opacity="0.8"/>
    <text x="200" y="250" font-family="Arial, sans-serif" font-size="16" font-weight="bold" text-anchor="middle" fill="white">シャード1</text>
    
    <!-- シャード2 -->
    <rect x="275" y="150" width="100" height="200" rx="10" ry="10" fill="url(#shard-gradient)" filter="url(#shadow)" opacity="0.8"/>
    <text x="325" y="250" font-family="Arial, sans-serif" font-size="16" font-weight="bold" text-anchor="middle" fill="white">シャード2</text>
    
    <!-- シャード3 -->
    <rect x="400" y="150" width="100" height="200" rx="10" ry="10" fill="url(#shard-gradient)" filter="url(#shadow)" opacity="0.8"/>
    <text x="450" y="250" font-family="Arial, sans-serif" font-size="16" font-weight="bold" text-anchor="middle" fill="white">シャード3</text>
    
    <!-- シャード4 -->
    <rect x="525" y="150" width="100" height="200" rx="10" ry="10" fill="url(#shard-gradient)" filter="url(#shadow)" opacity="0.8"/>
    <text x="575" y="250" font-family="Arial, sans-serif" font-size="16" font-weight="bold" text-anchor="middle" fill="white">シャード4</text>
  </g>
  
  <!-- 動的調整の矢印 -->
  <g>
    <path d="M 400,420 C 400,440 350,440 350,420" stroke="#333" stroke-width="2" fill="none" marker-end="url(#arrow)"/>
    <path d="M 400,420 C 400,440 450,440 450,420" stroke="#333" stroke-width="2" fill="none" marker-end="url(#arrow)"/>
    <text x="400" y="460" font-family="Arial, sans-serif" font-size="14" text-anchor="middle" fill="#333">負荷に応じて動的に調整</text>
  </g>
  
  <!-- トランザクション -->
  <g>
    <!-- トランザクション1 -->
    <circle cx="200" cy="180" r="15" fill="#4CAF50"/>
    <text x="200" y="185" font-family="Arial, sans-serif" font-size="12" font-weight="bold" text-anchor="middle" fill="white">Tx</text>
    
    <!-- トランザクション2 -->
    <circle cx="200" cy="220" r="15" fill="#4CAF50"/>
    <text x="200" y="225" font-family="Arial, sans-serif" font-size="12" font-weight="bold" text-anchor="middle" fill="white">Tx</text>
    
    <!-- トランザクション3 -->
    <circle cx="325" cy="180" r="15" fill="#4CAF50"/>
    <text x="325" y="185" font-family="Arial, sans-serif" font-size="12" font-weight="bold" text-anchor="middle" fill="white">Tx</text>
    
    <!-- トランザクション4 -->
    <circle cx="325" cy="220" r="15" fill="#4CAF50"/>
    <text x="325" y="225" font-family="Arial, sans-serif" font-size="12" font-weight="bold" text-anchor="middle" fill="white">Tx</text>
    
    <!-- トランザクション5 -->
    <circle cx="325" cy="260" r="15" fill="#4CAF50"/>
    <text x="325" y="265" font-family="Arial, sans-serif" font-size="12" font-weight="bold" text-anchor="middle" fill="white">Tx</text>
    
    <!-- トランザクション6 -->
    <circle cx="450" cy="180" r="15" fill="#4CAF50"/>
    <text x="450" y="185" font-family="Arial, sans-serif" font-size="12" font-weight="bold" text-anchor="middle" fill="white">Tx</text>
    
    <!-- トランザクション7 -->
    <circle cx="575" cy="180" r="15" fill="#4CAF50"/>
    <text x="575" y="185" font-family="Arial, sans-serif" font-size="12" font-weight="bold" text-anchor="middle" fill="white">Tx</text>
  </g>
  
  <!-- クロスシャード通信 -->
  <path d="M 220,300 C 250,330 300,330 330,300" stroke="#2196F3" stroke-width="2" stroke-dasharray="5,5" fill="none" marker-end="url(#arrow)"/>
  <text x="275" y="345" font-family="Arial, sans-serif" font-size="12" text-anchor="middle" fill="#2196F3">クロスシャード通信</text>
  
  <!-- フッター -->
  <text x="400" y="480" font-family="Arial, sans-serif" font-size="12" text-anchor="middle" fill="#666">© 2025 HyperFlux.io - トラフィックに応じて自動的にシャード数を調整</text>
</svg>