<?xml version="1.0" encoding="UTF-8" standalone="no"?>
<svg width="500" height="500" viewBox="0 0 500 500" fill="none" xmlns="http://www.w3.org/2000/svg">
  <style>
    .text { font-family: 'Arial', sans-serif; font-weight: bold; }
    .gradient-bg { fill: url(#gradient); }
    @media (prefers-color-scheme: dark) {
      .text { fill: white; }
    }
  </style>
  <defs>
    <linearGradient id="gradient" x1="0%" y1="0%" x2="100%" y2="100%">
      <stop offset="0%" stop-color="#6a11cb" />
      <stop offset="100%" stop-color="#2575fc" />
    </linearGradient>
  </defs>
  <rect width="500" height="500" rx="60" class="gradient-bg" />
  <g transform="translate(50, 250)">
    <!-- Flowing wave design -->
    <path d="M0,0 C50,-40 100,-50 150,-30 C200,-10 250,-40 300,-20 C350,0 400,-30 450,-10" 
          stroke="white" stroke-width="15" fill="none" stroke-linecap="round" />
    <path d="M0,40 C50,0 100,-10 150,10 C200,30 250,0 300,20 C350,40 400,10 450,30" 
          stroke="rgba(255,255,255,0.7)" stroke-width="12" fill="none" stroke-linecap="round" />
    <path d="M0,80 C50,40 100,30 150,50 C200,70 250,40 300,60 C350,80 400,50 450,70" 
          stroke="rgba(255,255,255,0.4)" stroke-width="10" fill="none" stroke-linecap="round" />
  </g>
  <text x="250" y="150" font-size="60" text-anchor="middle" class="text">HyperFlux</text>
  <text x="250" y="380" font-size="40" text-anchor="middle" class="text">.io</text>
</svg>