<?xml version="1.0" encoding="UTF-8" standalone="no"?>
<svg width="800" height="500" viewBox="0 0 800 500" xmlns="http://www.w3.org/2000/svg">
  <defs>
    <linearGradient id="flow-gradient" x1="0%" y1="0%" x2="100%" y2="100%">
      <stop offset="0%" stop-color="#1e88e5" stop-opacity="0.8"/>
      <stop offset="100%" stop-color="#00acc1" stop-opacity="0.8"/>
    </linearGradient>
    <filter id="shadow" x="-20%" y="-20%" width="140%" height="140%">
      <feDropShadow dx="2" dy="2" stdDeviation="3" flood-color="#000" flood-opacity="0.3"/>
    </filter>
    <marker id="arrow" viewBox="0 0 10 10" refX="5" refY="5"
      markerWidth="6" markerHeight="6" orient="auto-start-reverse">
      <path d="M 0 0 L 10 5 L 0 10 z" fill="#333"/>
    </marker>
  </defs>
  
  <!-- 背景 -->
  <rect width="800" height="500" fill="#f8f9fa" rx="10" ry="10"/>
  
  <!-- タイトル -->
  <text x="400" y="50" font-family="Arial, sans-serif" font-size="24" font-weight="bold" text-anchor="middle" fill="#333">Proof of Flow (PoF) コンセンサスメカニズム</text>
  
  <!-- 川のイメージ -->
  <path d="M 50,250 C 150,200 250,300 350,250 C 450,200 550,300 650,250 C 750,200 850,300 950,250" 
        stroke="url(#flow-gradient)" stroke-width="40" fill="none" opacity="0.7"/>
  
  <!-- トランザクションの流れ -->
  <g>
    <!-- トランザクションA -->
    <circle cx="150" cy="250" r="30" fill="#4CAF50" filter="url(#shadow)"/>
    <text x="150" y="255" font-family="Arial, sans-serif" font-size="14" font-weight="bold" text-anchor="middle" fill="white">Tx A</text>
    
    <!-- トランザクションB -->
    <circle cx="300" cy="250" r="30" fill="#FF5722" filter="url(#shadow)"/>
    <text x="300" y="255" font-family="Arial, sans-serif" font-size="14" font-weight="bold" text-anchor="middle" fill="white">Tx B</text>
    
    <!-- トランザクションC -->
    <circle cx="450" cy="250" r="30" fill="#9C27B0" filter="url(#shadow)"/>
    <text x="450" y="255" font-family="Arial, sans-serif" font-size="14" font-weight="bold" text-anchor="middle" fill="white">Tx C</text>
    
    <!-- トランザクションD -->
    <circle cx="600" cy="250" r="30" fill="#2196F3" filter="url(#shadow)"/>
    <text x="600" y="255" font-family="Arial, sans-serif" font-size="14" font-weight="bold" text-anchor="middle" fill="white">Tx D</text>
    
    <!-- 接続線 -->
    <line x1="180" y1="250" x2="270" y2="250" stroke="#333" stroke-width="2" marker-end="url(#arrow)"/>
    <line x1="330" y1="250" x2="420" y2="250" stroke="#333" stroke-width="2" marker-end="url(#arrow)"/>
    <line x1="480" y1="250" x2="570" y2="250" stroke="#333" stroke-width="2" marker-end="url(#arrow)"/>
  </g>
  
  <!-- 3つの技術要素 -->
  <g>
    <!-- DAG -->
    <rect x="100" y="350" width="160" height="80" rx="10" ry="10" fill="#1976D2" filter="url(#shadow)"/>
    <text x="180" y="380" font-family="Arial, sans-serif" font-size="16" font-weight="bold" text-anchor="middle" fill="white">DAG</text>
    <text x="180" y="405" font-family="Arial, sans-serif" font-size="12" text-anchor="middle" fill="white">並列トランザクション処理</text>
    
    <!-- PoH -->
    <rect x="320" y="350" width="160" height="80" rx="10" ry="10" fill="#388E3C" filter="url(#shadow)"/>
    <text x="400" y="380" font-family="Arial, sans-serif" font-size="16" font-weight="bold" text-anchor="middle" fill="white">PoH</text>
    <text x="400" y="405" font-family="Arial, sans-serif" font-size="12" text-anchor="middle" fill="white">時間順序の証明</text>
    
    <!-- PoS -->
    <rect x="540" y="350" width="160" height="80" rx="10" ry="10" fill="#D32F2F" filter="url(#shadow)"/>
    <text x="620" y="380" font-family="Arial, sans-serif" font-size="16" font-weight="bold" text-anchor="middle" fill="white">PoS</text>
    <text x="620" y="405" font-family="Arial, sans-serif" font-size="12" text-anchor="middle" fill="white">バリデータによる承認</text>
  </g>
  
  <!-- 時計のアイコン -->
  <g transform="translate(400, 150)">
    <circle cx="0" cy="0" r="40" fill="white" stroke="#333" stroke-width="2"/>
    <line x1="0" y1="0" x2="0" y2="-25" stroke="#333" stroke-width="2"/>
    <line x1="0" y1="0" x2="15" y2="10" stroke="#333" stroke-width="2"/>
    <circle cx="0" cy="0" r="5" fill="#333"/>
    <text x="0" y="-50" font-family="Arial, sans-serif" font-size="14" text-anchor="middle" fill="#333">タイムスタンプ</text>
  </g>
  
  <!-- フッター -->
  <text x="400" y="480" font-family="Arial, sans-serif" font-size="12" text-anchor="middle" fill="#666">© 2025 HyperFlux.io - トランザクションが川の流れのように速く、スムーズに動く</text>
</svg>