<?xml version="1.0" encoding="UTF-8" standalone="no"?>
<svg width="800" height="450" viewBox="0 0 800 450" fill="none" xmlns="http://www.w3.org/2000/svg">
  <style>
    .card { fill: white; stroke: #e9ecef; stroke-width: 1; }
    .card-header { fill: #f8f9fa; }
    .text-header { font-family: Arial, sans-serif; font-size: 14px; fill: #212529; font-weight: bold; }
    .text-value { font-family: Arial, sans-serif; font-size: 24px; fill: #6a11cb; font-weight: bold; }
    .text-label { font-family: Arial, sans-serif; font-size: 12px; fill: #6c757d; }
    .chart-line { stroke: #2575fc; stroke-width: 2; fill: none; }
    .chart-area { fill: url(#chartGradient); opacity: 0.3; }
    .chart-dot { fill: #6a11cb; }
    .header { fill: url(#headerGradient); }
    .header-text { font-family: Arial, sans-serif; font-size: 24px; fill: white; font-weight: bold; }
  </style>
  
  <defs>
    <linearGradient id="headerGradient" x1="0%" y1="0%" x2="100%" y2="0%">
      <stop offset="0%" stop-color="#6a11cb" />
      <stop offset="100%" stop-color="#2575fc" />
    </linearGradient>
    <linearGradient id="chartGradient" x1="0%" y1="0%" x2="0%" y2="100%">
      <stop offset="0%" stop-color="#2575fc" stop-opacity="0.5" />
      <stop offset="100%" stop-color="#2575fc" stop-opacity="0" />
    </linearGradient>
  </defs>
  
  <!-- Header -->
  <rect x="0" y="0" width="800" height="80" class="header" rx="5" />
  <text x="400" y="50" text-anchor="middle" class="header-text">HyperFlux.io ダッシュボード</text>
  
  <!-- Stats Cards -->
  <g transform="translate(50, 100)">
    <!-- TPS Card -->
    <rect x="0" y="0" width="200" height="120" rx="10" class="card" />
    <rect x="0" y="0" width="200" height="40" rx="10" class="card-header" />
    <text x="100" y="25" text-anchor="middle" class="text-header">現在のTPS</text>
    <text x="100" y="80" text-anchor="middle" class="text-value">1,245.32</text>
    <text x="100" y="100" text-anchor="middle" class="text-label">トランザクション/秒</text>
    
    <!-- Shards Card -->
    <rect x="220" y="0" width="200" height="120" rx="10" class="card" />
    <rect x="220" y="0" width="200" height="40" rx="10" class="card-header" />
    <text x="320" y="25" text-anchor="middle" class="text-header">シャード数</text>
    <text x="320" y="80" text-anchor="middle" class="text-value">256</text>
    <text x="320" y="100" text-anchor="middle" class="text-label">アクティブシャード</text>
    
    <!-- Transactions Card -->
    <rect x="440" y="0" width="200" height="120" rx="10" class="card" />
    <rect x="440" y="0" width="200" height="40" rx="10" class="card-header" />
    <text x="540" y="25" text-anchor="middle" class="text-header">確認済みトランザクション</text>
    <text x="540" y="80" text-anchor="middle" class="text-value">8,432,901</text>
    <text x="540" y="100" text-anchor="middle" class="text-label">合計</text>
  </g>
  
  <!-- Chart -->
  <g transform="translate(50, 240)">
    <rect x="0" y="0" width="700" height="180" rx="10" class="card" />
    <rect x="0" y="0" width="700" height="40" rx="10" class="card-header" />
    <text x="350" y="25" text-anchor="middle" class="text-header">TPSの推移</text>
    
    <!-- Chart Grid -->
    <line x1="50" y1="60" x2="50" y2="160" stroke="#e9ecef" stroke-width="1" />
    <line x1="50" y1="160" x2="650" y2="160" stroke="#e9ecef" stroke-width="1" />
    
    <!-- Chart Data -->
    <path d="M50,130 C100,140 150,100 200,110 C250,120 300,80 350,70 C400,60 450,90 500,80 C550,70 600,90 650,60" class="chart-line" />
    <path d="M50,130 C100,140 150,100 200,110 C250,120 300,80 350,70 C400,60 450,90 500,80 C550,70 600,90 650,60 L650,160 L50,160 Z" class="chart-area" />
    
    <!-- Chart Points -->
    <circle cx="50" cy="130" r="4" class="chart-dot" />
    <circle cx="150" cy="100" r="4" class="chart-dot" />
    <circle cx="250" cy="120" r="4" class="chart-dot" />
    <circle cx="350" cy="70" r="4" class="chart-dot" />
    <circle cx="450" cy="90" r="4" class="chart-dot" />
    <circle cx="550" cy="70" r="4" class="chart-dot" />
    <circle cx="650" cy="60" r="4" class="chart-dot" />
    
    <!-- X Axis Labels -->
    <text x="50" y="175" text-anchor="middle" class="text-label">10:00</text>
    <text x="150" y="175" text-anchor="middle" class="text-label">10:05</text>
    <text x="250" y="175" text-anchor="middle" class="text-label">10:10</text>
    <text x="350" y="175" text-anchor="middle" class="text-label">10:15</text>
    <text x="450" y="175" text-anchor="middle" class="text-label">10:20</text>
    <text x="550" y="175" text-anchor="middle" class="text-label">10:25</text>
    <text x="650" y="175" text-anchor="middle" class="text-label">10:30</text>
    
    <!-- Y Axis Labels -->
    <text x="40" y="160" text-anchor="end" class="text-label">0</text>
    <text x="40" y="130" text-anchor="end" class="text-label">500</text>
    <text x="40" y="100" text-anchor="end" class="text-label">1000</text>
    <text x="40" y="70" text-anchor="end" class="text-label">1500</text>
  </g>
</svg>