<?xml version="1.0" encoding="UTF-8" standalone="no"?>
<svg width="32" height="32" viewBox="0 0 32 32" fill="none" xmlns="http://www.w3.org/2000/svg">
  <path d="M16,2 C8.268,2 2,8.268 2,16 C2,23.732 8.268,30 16,30 C23.732,30 30,23.732 30,16 C30,8.268 23.732,2 16,2 Z" fill="#F8F9FA"/>
  <path d="M16,4 C9.373,4 4,9.373 4,16 C4,22.627 9.373,28 16,28 C22.627,28 28,22.627 28,16 C28,9.373 22.627,4 16,4 Z M16,6 C21.523,6 26,10.477 26,16 C26,21.523 21.523,26 16,26 C10.477,26 6,21.523 6,16 C6,10.477 10.477,6 16,6 Z" fill="#212529"/>
  <circle cx="12" cy="14" r="1.5" fill="#212529"/>
  <circle cx="20" cy="14" r="1.5" fill="#212529"/>
  <path d="M16,20 C13.5,20 11.5,18.5 11,17 L21,17 C20.5,18.5 18.5,20 16,20 Z" fill="#212529"/>
</svg>