<?xml version="1.0" encoding="UTF-8" standalone="no"?>
<svg width="32" height="32" viewBox="0 0 32 32" fill="none" xmlns="http://www.w3.org/2000/svg">
  <path d="M16,2 C8.268,2 2,8.268 2,16 C2,23.732 8.268,30 16,30 C23.732,30 30,23.732 30,16 C30,8.268 23.732,2 16,2 Z" fill="#F8F9FA"/>
  <path d="M22,10 C21.5,8.167 19.667,7 18,7 C16.333,7 15,8 14,8 C13,8 11,7 10,7 C9,7 7,8.167 6.5,10 C6,11.833 6.5,15.667 8,18 C9.5,20.333 11,22 12,22 C13,22 14,21 16,21 C18,21 19,22 20,22 C21,22 22.5,20.333 24,18 C25.5,15.667 26,11.833 25.5,10 C25,8.167 23,7 22,7 C21,7 19,8 18,8 C17,8 15.5,7 14,7" stroke="#212529" stroke-width="1.5" fill="none"/>
</svg>