<?xml version="1.0" encoding="UTF-8" standalone="no"?>
<svg width="32" height="32" viewBox="0 0 32 32" fill="none" xmlns="http://www.w3.org/2000/svg">
  <path d="M16,2 C8.268,2 2,8.268 2,16 C2,23.732 8.268,30 16,30 C23.732,30 30,23.732 30,16 C30,8.268 23.732,2 16,2 Z" fill="#F8F9FA"/>
  <path d="M7,9 L15,8 L15,15 L7,15 L7,9 Z" fill="#212529"/>
  <path d="M17,8 L25,7 L25,15 L17,15 L17,8 Z" fill="#212529"/>
  <path d="M7,17 L15,17 L15,24 L7,23 L7,17 Z" fill="#212529"/>
  <path d="M17,17 L25,17 L25,23 L17,24 L17,17 Z" fill="#212529"/>
</svg>